#!OML:ASF E:\Steps\Project 1\Capture day 1\Session 2\Subject.ASF
:FULLY-SPECIFIED
:DEGREES
656
root 8.99585 19.0871 -5.27407 -158.947 -5.92085 180.037
lowerback -18.1501 -3.13618 -5.71438
upperback 2.78267 -2.93135 0.184542
thorax 13.7154 -1.82067 2.57795
lowerneck -2.89535 -3.651 -1.33138
upperneck 20.0007 -4.48602 5.01487
head 6.69764 -1.35918 1.59539
rclavicle 1.61016e-014 -3.97569e-015
rhumerus -43.6094 -19.1289 -74.4756
rradius 33.4161
rwrist 1.01261
rhand -6.97225 -53.1738
rfingers 7.12502
rthumb 18.8975 -82.2758
lclavicle 1.61016e-014 -3.97569e-015
lhumerus -30.9323 0.16893 82.3184
lradius 33.104
lwrist -3.03119
lhand -20.9225 -8.98802
lfingers 7.12502
lthumb 5.44922 20.9219
rfemur -78.242 -2.88512 20.4059
rtibia 63.0641
rfoot -379.627 -10.2843
rtoes -33.7659
lfemur -22.0319 -11.3439 -21.113
ltibia 24.3566
lfoot -19.3093 1.46672
ltoes -26.3143
657
root 9.00539 19.0793 -5.35895 -158.743 -5.87543 179.994
lowerback -18.3787 -3.16359 -5.65111
upperback 2.72859 -2.97721 0.250231
thorax 13.7925 -1.83998 2.59507
lowerneck -2.84048 -3.64164 -1.5917
upperneck 19.7252 -4.51496 5.2791
head 6.61216 -1.3894 1.72008
rclavicle -2.42517e-014 -2.38542e-015
rhumerus -43.5309 -18.5282 -74.7468
rradius 33.8884
rwrist 0.35164
rhand -7.27816 -53.0399
rfingers 7.12502
rthumb 18.6033 -82.1704
lclavicle -2.42517e-014 -2.38542e-015
lhumerus -31.0238 0.37923 82.3888
lradius 32.9318
lwrist -3.11097
lhand -20.9089 -8.95102
lfingers 7.12502
lthumb 5.46231 20.9586
rfemur -78.2923 -2.94236 20.7262
rtibia 63.3445
rfoot -379.938 -10.6414
rtoes -31.9581
lfemur -21.8599 -11.2607 -21.1272
ltibia 24.2142
lfoot -19.4767 1.65027
ltoes -28.2389
658
root 9.01445 19.0728 -5.44197 -158.528 -5.81612 180.002
lowerback -18.4913 -3.13756 -5.49207
upperback 2.65165 -2.97943 0.290256
thorax 13.7613 -1.82843 2.54743
lowerneck -2.90366 -3.67424 -1.83363
upperneck 19.6413 -4.60425 5.60465
head 6.61257 -1.42982 1.85745
rclavicle -5.36719e-015 5.56597e-015
rhumerus -43.2239 -18.3665 -74.8644
rradius 33.8677
rwrist 0.126439
rhand -7.26943 -53.3688
rfingers 7.12502
rthumb 18.6117 -82.4984
lclavicle -5.36719e-015 5.56597e-015
lhumerus -31.1511 0.409268 82.4312
lradius 32.7376
lwrist -3.18648
lhand -21.0189 -9.10814
lfingers 7.12502
lthumb 5.35611 20.8042
rfemur -78.4371 -2.89343 20.9757
rtibia 63.7673
rfoot -380.523 -10.5826
rtoes -30.1772
lfemur -21.6542 -11.1492 -21.0813
ltibia 23.9931
lfoot -19.5577 1.79287
ltoes -29.6167
659
root 9.02313 19.0662 -5.52343 -158.287 -5.64097 179.91
lowerback -18.6006 -3.06921 -5.46021
upperback 2.51307 -2.89265 0.269833
thorax 13.6515 -1.78172 2.5327
lowerneck -3.18299 -3.79454 -1.98336
upperneck 20.1335 -4.7687 5.79291
head 6.83516 -1.47333 1.93311
rclavicle 2.32578e-014 -3.57812e-015
rhumerus -43.1992 -18.5168 -74.8365
rradius 33.9431
rwrist 0.112865
rhand -6.98882 -53.5467
rfingers 7.12502
rthumb 18.8816 -82.6502
lclavicle 2.32578e-014 -3.57812e-015
lhumerus -31.3603 0.318554 82.4672
lradius 32.4227
lwrist -3.35043
lhand -21.1852 -9.46129
lfingers 7.12502
lthumb 5.19549 20.455
rfemur -78.8156 -2.70485 20.8996
rtibia 64.5653
rfoot -380.846 -10.3357
rtoes -29.4754
lfemur -21.4458 -11.1226 -21.1631
ltibia 23.7776
lfoot -19.6297 1.84416
ltoes -29.9198
660
root 9.03352 19.0607 -5.60302 -158.115 -5.48942 179.792
lowerback -18.6501 -3.03799 -5.52142
upperback 2.44363 -2.84026 0.299208
thorax 13.5996 -1.7622 2.61671
lowerneck -3.09829 -3.70734 -1.67041
upperneck 19.8834 -4.61757 5.35533
head 6.71586 -1.4304 1.74823
rclavicle -1.94809e-014 8.34896e-015
rhumerus -43.1198 -18.5099 -74.8187
rradius 34.1517
rwrist 0.115668
rhand -6.84426 -53.2338
rfingers 7.12502
rthumb 19.0206 -82.3237
lclavicle -1.94809e-014 8.34896e-015
lhumerus -31.3323 0.415727 82.5688
lradius 31.9963
lwrist -3.49834
lhand -21.1281 -9.23095
lfingers 7.12502
lthumb 5.25071 20.684
rfemur -79.1216 -2.54892 20.7863
rtibia 65.2656
rfoot -380.72 -10.2344
rtoes -30.0967
lfemur -21.1664 -11.1573 -21.2845
ltibia 23.5281
lfoot -19.6013 1.97261
ltoes -30.136
661
root 9.04381 19.0596 -5.68524 -158.062 -5.37822 179.789
lowerback -18.5691 -2.98319 -5.42933
upperback 2.42864 -2.79877 0.348486
thorax 13.5274 -1.73664 2.63626
lowerneck -3.27299 -3.64656 -1.40877
upperneck 19.8822 -4.50349 4.93738
head 6.72656 -1.39426 1.57448
rclavicle -2.0276e-014 -5.56597e-015
rhumerus -42.8058 -18.6757 -74.7457
rradius 34.1287
rwrist 0.378646
rhand -6.75307 -53.1588
rfingers 7.12502
rthumb 19.1083 -82.2402
lclavicle -2.0276e-014 -5.56597e-015
lhumerus -31.3423 0.396278 82.6704
lradius 31.746
lwrist -3.40121
lhand -21.0778 -8.82833
lfingers 7.12502
lthumb 5.29926 21.0854
rfemur -79.125 -2.40318 20.8392
rtibia 65.638
rfoot -380.374 -10.2379
rtoes -31.0347
lfemur -20.7629 -11.1545 -21.2835
ltibia 23.2647
lfoot -19.5 2.06981
ltoes -29.61
662
root 9.05375 19.0597 -5.77324 -158.068 -5.17737 179.747
lowerback -18.5511 -2.87218 -5.30632
upperback 2.39988 -2.67634 0.308788
thorax 13.4615 -1.66746 2.56079
lowerneck -3.23865 -3.62721 -1.43254
upperneck 19.7739 -4.50368 5.09632
head 6.68974 -1.38778 1.62941
rclavicle 2.98177e-015 2.06736e-014
rhumerus -42.855 -18.7067 -74.7851
rradius 34.5006
rwrist 0.223608
rhand -6.98545 -53.2595
rfingers 7.12502
rthumb 18.8848 -82.3628
lclavicle 2.98177e-015 2.06736e-014
lhumerus -31.5266 0.2753 82.6782
lradius 31.5418
lwrist -3.50402
lhand -21.1181 -9.09044
lfingers 7.12502
lthumb 5.26027 20.8243
rfemur -79.0666 -2.16834 20.7644
rtibia 66.0467
rfoot -380.079 -10.396
rtoes -32.2108
lfemur -20.276 -11.117 -21.3673
ltibia 23.0652
lfoot -19.4414 2.19945
ltoes -29.2458
663
root 9.06227 19.0589 -5.85943 -158.082 -5.01495 179.621
lowerback -18.5087 -2.77955 -5.22738
upperback 2.36941 -2.56938 0.264256
thorax 13.3837 -1.60846 2.50071
lowerneck -3.39487 -3.69812 -1.47455
upperneck 19.9586 -4.59928 5.1264
head 6.78197 -1.42365 1.63874
rclavicle 1.49089e-014 -3.97569e-015
rhumerus -42.8296 -18.6709 -74.8332
rradius 34.6982
rwrist -0.157485
rhand -7.74254 -52.9704
rfingers 7.12502
rthumb 18.1566 -82.143
lclavicle 1.49089e-014 -3.97569e-015
lhumerus -31.5587 0.445589 82.6666
lradius 31.0505
lwrist -3.97929
lhand -20.936 -9.48171
lfingers 7.12502
lthumb 5.4361 20.4286
rfemur -78.9946 -2.02654 20.594
rtibia 66.5244
rfoot -380.108 -10.591
rtoes -33.9628
lfemur -19.7787 -11.1962 -21.5701
ltibia 22.8833
lfoot -19.3576 2.42169
ltoes -30.0829
664
root 9.07287 19.0617 -5.93832 -158.065 -4.90599 179.572
lowerback -18.2765 -2.70944 -5.13065
upperback 2.33221 -2.51587 0.300201
thorax 13.1948 -1.5743 2.51069
lowerneck -3.39428 -3.72656 -1.45763
upperneck 19.7818 -4.64385 5.05113
head 6.7244 -1.46293 1.60659
rclavicle -5.1684e-015 1.19271e-014
rhumerus -42.4825 -18.9504 -74.739
rradius 34.5379
rwrist -0.0519594
rhand -8.14784 -52.5659
rfingers 7.12502
rthumb 17.7666 -81.7743
lclavicle -5.1684e-015 1.19271e-014
lhumerus -31.5945 0.712976 82.693
lradius 30.633
lwrist -4.36722
lhand -20.7924 -9.50082
lfingers 7.12502
lthumb 5.57474 20.4059
rfemur -78.8575 -1.86254 20.5195
rtibia 66.9126
rfoot -380.375 -10.704
rtoes -34.936
lfemur -19.3795 -11.2388 -21.6395
ltibia 22.7176
lfoot -19.2479 2.77874
ltoes -31.8407
665
root 9.08629 19.0694 -6.01738 -158.01 -4.77779 179.658
lowerback -18.136 -2.67287 -4.99152
upperback 2.37975 -2.51519 0.409501
thorax 13.1654 -1.56789 2.55827
lowerneck -3.29148 -3.60501 -1.63382
upperneck 19.0286 -4.55808 5.32309
head 6.47168 -1.46136 1.72388
rclavicle -2.59414e-014 -2.78299e-015
rhumerus -42.1342 -18.8046 -74.8648
rradius 34.979
rwrist 0.0160471
rhand -7.52858 -52.9473
rfingers 7.12502
rthumb 18.3624 -82.1006
lclavicle -2.59414e-014 -2.78299e-015
lhumerus -31.5485 0.959941 82.7257
lradius 30.4277
lwrist -4.56536
lhand -20.7866 -9.2498
lfingers 7.12502
lthumb 5.58035 20.6567
rfemur -78.6383 -1.5708 20.6033
rtibia 67.1207
rfoot -380.87 -10.6341
rtoes -34.0834
lfemur -19.0221 -11.1606 -21.5306
ltibia 22.5191
lfoot -19.1018 3.40805
ltoes -34.9992
